<svg width="180" height="180" viewBox="0 0 180 180" fill="none" xmlns="http://www.w3.org/2000/svg">
<path d="M65.9998 132L150 109.5V139.5L65.9998 162V132Z" fill="url(#paint0_radial_2102_944)"/>
<path d="M65.9997 132L28.4998 118.5V148.5L65.9997 162V132Z" fill="url(#paint1_radial_2102_944)"/>
<path d="M65.9998 102L150 79.5002V109.5L65.9998 132V102Z" fill="url(#paint2_radial_2102_944)"/>
<path d="M65.9998 102L150 79.5L112.5 67.5L28.4998 88.5L65.9998 102Z" fill="url(#paint3_radial_2102_944)"/>
<path d="M65.9997 102L28.4998 88.5V118.5L65.9997 132V102Z" fill="url(#paint4_radial_2102_944)"/>
<path fill-rule="evenodd" clip-rule="evenodd" d="M60 81H45V87C45 88.65 48.36 90 52.5 90C56.64 90 60 88.65 60 87V81Z" fill="url(#paint5_linear_2102_944)"/>
<path fill-rule="evenodd" clip-rule="evenodd" d="M80.9998 87H65.9998V93C65.9998 94.65 69.3598 96 73.4998 96C77.6398 96 80.9998 94.65 80.9998 93V87Z" fill="url(#paint6_linear_2102_944)"/>
<path fill-rule="evenodd" clip-rule="evenodd" d="M78 76.5H63V82.5C63 84.15 66.36 85.5 70.5 85.5C74.64 85.5 78 84.15 78 82.5V76.5Z" fill="url(#paint7_linear_2102_944)"/>
<path fill-rule="evenodd" clip-rule="evenodd" d="M99.0002 82.5H84.0002V88.5C84.0002 90.15 87.3602 91.5 91.5002 91.5C95.6402 91.5 99.0002 90.15 99.0002 88.5V82.5Z" fill="url(#paint8_linear_2102_944)"/>
<path fill-rule="evenodd" clip-rule="evenodd" d="M95.9998 72.0002H80.9998V78.0002C80.9998 79.6502 84.3598 81.0002 88.4998 81.0002C92.6398 81.0002 95.9998 79.6502 95.9998 78.0002V72.0002Z" fill="url(#paint9_linear_2102_944)"/>
<path fill-rule="evenodd" clip-rule="evenodd" d="M117 77.9998H102V83.9998C102 85.6498 105.36 86.9998 109.5 86.9998C113.64 86.9998 117 85.6498 117 83.9998V77.9998Z" fill="url(#paint10_linear_2102_944)"/>
<path fill-rule="evenodd" clip-rule="evenodd" d="M114 67.5H99.0002V73.5C99.0002 75.15 102.36 76.5 106.5 76.5C110.64 76.5 114 75.15 114 73.5V67.5Z" fill="url(#paint11_linear_2102_944)"/>
<path fill-rule="evenodd" clip-rule="evenodd" d="M135 73.5H120V79.5C120 81.15 123.36 82.5 127.5 82.5C131.64 82.5 135 81.15 135 79.5V73.5Z" fill="url(#paint12_linear_2102_944)"/>
<path fill-rule="evenodd" clip-rule="evenodd" d="M114 67.5C114 69.15 110.64 70.5 106.5 70.5C102.36 70.5 99 69.15 99 67.5C99 65.85 102.36 64.5 106.5 64.5C110.64 64.5 114 65.85 114 67.5ZM96 72C96 73.65 92.64 75 88.5 75C84.36 75 81 73.65 81 72C81 70.35 84.36 69 88.5 69C92.64 69 96 70.35 96 72ZM78 76.5C78 78.15 74.64 79.5 70.5 79.5C66.36 79.5 63 78.15 63 76.5C63 74.85 66.36 73.5 70.5 73.5C74.64 73.5 78 74.85 78 76.5ZM52.5 84C56.64 84 60 82.65 60 81C60 79.35 56.64 78 52.5 78C48.36 78 45 79.35 45 81C45 82.65 48.36 84 52.5 84ZM73.5 90C77.64 90 81 88.65 81 87C81 85.35 77.64 84 73.5 84C69.36 84 66 85.35 66 87C66 88.65 69.36 90 73.5 90ZM91.5 85.5C95.64 85.5 99 84.15 99 82.5C99 80.85 95.64 79.5 91.5 79.5C87.36 79.5 84 80.85 84 82.5C84 84.15 87.36 85.5 91.5 85.5ZM109.5 81C113.64 81 117 79.65 117 78C117 76.35 113.64 75 109.5 75C105.36 75 102 76.35 102 78C102 79.65 105.36 81 109.5 81ZM127.5 76.5C131.64 76.5 135 75.15 135 73.5C135 71.85 131.64 70.5 127.5 70.5C123.36 70.5 120 71.85 120 73.5C120 75.15 123.36 76.5 127.5 76.5Z" fill="url(#paint13_linear_2102_944)"/>
<path opacity="0.3" d="M150 33L112.5 21V49.5L150 63.0001V33Z" fill="url(#paint14_linear_2102_944)"/>
<path opacity="0.3" d="M28.4998 42L112.5 21V49.5L28.4998 72.0001V42Z" fill="url(#paint15_linear_2102_944)"/>
<path opacity="0.8" d="M65.9998 55.4998L150 32.9998V62.9998L65.9998 85.4998V55.4998Z" fill="url(#paint16_radial_2102_944)"/>
<path opacity="0.8" d="M65.9998 55.5L150 33L112.5 21L28.4998 42L65.9998 55.5Z" fill="url(#paint17_radial_2102_944)"/>
<path opacity="0.8" d="M65.9997 55.5L28.4998 42V72L65.9997 85.5V55.5Z" fill="url(#paint18_radial_2102_944)"/>
<path opacity="0.8" fill-rule="evenodd" clip-rule="evenodd" d="M60 34.5V40.5C60 42.15 56.64 43.5 52.5 43.5C48.36 43.5 45 42.15 45 40.5V34.5C45 32.85 48.36 31.5 52.5 31.5C56.64 31.5 60 32.85 60 34.5Z" fill="url(#paint19_linear_2102_944)"/>
<path opacity="0.8" fill-rule="evenodd" clip-rule="evenodd" d="M80.9998 40.5V46.5C80.9998 48.15 77.6398 49.5 73.4998 49.5C69.3598 49.5 65.9998 48.15 65.9998 46.5V40.5C65.9998 38.85 69.3598 37.5 73.4998 37.5C77.6398 37.5 80.9998 38.85 80.9998 40.5Z" fill="url(#paint20_linear_2102_944)"/>
<path opacity="0.8" fill-rule="evenodd" clip-rule="evenodd" d="M78 30V36C78 37.65 74.64 39 70.5 39C66.36 39 63 37.65 63 36V30C63 28.35 66.36 27 70.5 27C74.64 27 78 28.35 78 30Z" fill="url(#paint21_linear_2102_944)"/>
<path opacity="0.8" fill-rule="evenodd" clip-rule="evenodd" d="M99.0002 35.9998V41.9998C99.0002 43.6498 95.6402 44.9998 91.5002 44.9998C87.3602 44.9998 84.0002 43.6498 84.0002 41.9998V35.9998C84.0002 34.3498 87.3602 32.9998 91.5002 32.9998C95.6402 32.9998 99.0002 34.3498 99.0002 35.9998Z" fill="url(#paint22_linear_2102_944)"/>
<path opacity="0.8" fill-rule="evenodd" clip-rule="evenodd" d="M95.9998 25.5V31.5C95.9998 33.15 92.6398 34.5 88.4998 34.5C84.3598 34.5 80.9998 33.15 80.9998 31.5V25.5C80.9998 23.85 84.3598 22.5 88.4998 22.5C92.6398 22.5 95.9998 23.85 95.9998 25.5Z" fill="url(#paint23_linear_2102_944)"/>
<path opacity="0.8" fill-rule="evenodd" clip-rule="evenodd" d="M117 31.5V37.5C117 39.15 113.64 40.5 109.5 40.5C105.36 40.5 102 39.15 102 37.5V31.5C102 29.85 105.36 28.5 109.5 28.5C113.64 28.5 117 29.85 117 31.5Z" fill="url(#paint24_linear_2102_944)"/>
<path opacity="0.8" fill-rule="evenodd" clip-rule="evenodd" d="M114 21V27C114 28.65 110.64 30 106.5 30C102.36 30 99.0002 28.65 99.0002 27V21C99.0002 19.35 102.36 18 106.5 18C110.64 18 114 19.35 114 21Z" fill="url(#paint25_linear_2102_944)"/>
<path opacity="0.8" fill-rule="evenodd" clip-rule="evenodd" d="M135 27V33C135 34.65 131.64 36 127.5 36C123.36 36 120 34.65 120 33V27C120 25.35 123.36 24 127.5 24C131.64 24 135 25.35 135 27Z" fill="url(#paint26_linear_2102_944)"/>
<path opacity="0.8" fill-rule="evenodd" clip-rule="evenodd" d="M114 21C114 22.65 110.64 24 106.5 24C102.36 24 99 22.65 99 21C99 19.35 102.36 18 106.5 18C110.64 18 114 19.35 114 21ZM96 25.5C96 27.15 92.64 28.5 88.5 28.5C84.36 28.5 81 27.15 81 25.5C81 23.85 84.36 22.5 88.5 22.5C92.64 22.5 96 23.85 96 25.5ZM78 30C78 31.65 74.64 33 70.5 33C66.36 33 63 31.65 63 30C63 28.35 66.36 27 70.5 27C74.64 27 78 28.35 78 30ZM52.5 37.5C56.64 37.5 60 36.15 60 34.5C60 32.85 56.64 31.5 52.5 31.5C48.36 31.5 45 32.85 45 34.5C45 36.15 48.36 37.5 52.5 37.5ZM73.5 43.5C77.64 43.5 81 42.15 81 40.5C81 38.85 77.64 37.5 73.5 37.5C69.36 37.5 66 38.85 66 40.5C66 42.15 69.36 43.5 73.5 43.5ZM91.5 39C95.64 39 99 37.65 99 36C99 34.35 95.64 33 91.5 33C87.36 33 84 34.35 84 36C84 37.65 87.36 39 91.5 39ZM109.5 34.5C113.64 34.5 117 33.15 117 31.5C117 29.85 113.64 28.5 109.5 28.5C105.36 28.5 102 29.85 102 31.5C102 33.15 105.36 34.5 109.5 34.5ZM127.5 30C131.64 30 135 28.65 135 27C135 25.35 131.64 24 127.5 24C123.36 24 120 25.35 120 27C120 28.65 123.36 30 127.5 30Z" fill="url(#paint27_linear_2102_944)"/>
<defs>
<radialGradient id="paint0_radial_2102_944" cx="0" cy="0" r="1" gradientUnits="userSpaceOnUse" gradientTransform="translate(149.231 110.986) rotate(135) scale(127.279)">
<stop stop-color="#FFA984"/>
<stop offset="0.33" stop-color="#FF787F"/>
<stop offset="0.67" stop-color="#F45FA2"/>
<stop offset="1" stop-color="#C44AF1"/>
</radialGradient>
<radialGradient id="paint1_radial_2102_944" cx="0" cy="0" r="1" gradientUnits="userSpaceOnUse" gradientTransform="translate(62.2467 118.512) rotate(139.64) scale(45.1694 45.1694)">
<stop stop-color="#FFA984"/>
<stop offset="0.33" stop-color="#FF787F"/>
<stop offset="0.67" stop-color="#F45FA2"/>
<stop offset="1" stop-color="#C44AF1"/>
</radialGradient>
<radialGradient id="paint2_radial_2102_944" cx="0" cy="0" r="1" gradientUnits="userSpaceOnUse" gradientTransform="translate(147.76 80.9962) rotate(135) scale(121.976)">
<stop stop-color="#EF7744"/>
<stop offset="0.33" stop-color="#E50914"/>
<stop offset="0.67" stop-color="#A70D53"/>
<stop offset="1" stop-color="#792A95"/>
</radialGradient>
<radialGradient id="paint3_radial_2102_944" cx="0" cy="0" r="1" gradientUnits="userSpaceOnUse" gradientTransform="translate(111.75 74.25) rotate(135) scale(108.187)">
<stop stop-color="#EF7744"/>
<stop offset="0.33" stop-color="#E50914"/>
<stop offset="0.67" stop-color="#A70D53"/>
<stop offset="1" stop-color="#792A95"/>
</radialGradient>
<radialGradient id="paint4_radial_2102_944" cx="0" cy="0" r="1" gradientUnits="userSpaceOnUse" gradientTransform="translate(80.9861 66.7444) rotate(135) scale(102.884)">
<stop stop-color="#EF7744"/>
<stop offset="0.33" stop-color="#E50914"/>
<stop offset="0.67" stop-color="#A70D53"/>
<stop offset="1" stop-color="#792A95"/>
</radialGradient>
<linearGradient id="paint5_linear_2102_944" x1="60" y1="85.5" x2="41.28" y2="86.325" gradientUnits="userSpaceOnUse">
<stop stop-color="#EF7744"/>
<stop offset="0.5" stop-color="#E50914"/>
<stop offset="1" stop-color="#6C1E41"/>
</linearGradient>
<linearGradient id="paint6_linear_2102_944" x1="80.9997" y1="91.5" x2="62.2798" y2="92.325" gradientUnits="userSpaceOnUse">
<stop stop-color="#EF7744"/>
<stop offset="0.5" stop-color="#E50914"/>
<stop offset="1" stop-color="#6C1E41"/>
</linearGradient>
<linearGradient id="paint7_linear_2102_944" x1="78" y1="81" x2="59.28" y2="81.825" gradientUnits="userSpaceOnUse">
<stop stop-color="#EF7744"/>
<stop offset="0.5" stop-color="#E50914"/>
<stop offset="1" stop-color="#6C1E41"/>
</linearGradient>
<linearGradient id="paint8_linear_2102_944" x1="99.0002" y1="87" x2="80.2802" y2="87.825" gradientUnits="userSpaceOnUse">
<stop stop-color="#EF7744"/>
<stop offset="0.5" stop-color="#E50914"/>
<stop offset="1" stop-color="#6C1E41"/>
</linearGradient>
<linearGradient id="paint9_linear_2102_944" x1="95.9998" y1="76.5002" x2="77.2798" y2="77.3252" gradientUnits="userSpaceOnUse">
<stop stop-color="#EF7744"/>
<stop offset="0.5" stop-color="#E50914"/>
<stop offset="1" stop-color="#6C1E41"/>
</linearGradient>
<linearGradient id="paint10_linear_2102_944" x1="117" y1="82.4998" x2="98.2802" y2="83.3248" gradientUnits="userSpaceOnUse">
<stop stop-color="#EF7744"/>
<stop offset="0.5" stop-color="#E50914"/>
<stop offset="1" stop-color="#6C1E41"/>
</linearGradient>
<linearGradient id="paint11_linear_2102_944" x1="114" y1="72" x2="95.2802" y2="72.825" gradientUnits="userSpaceOnUse">
<stop stop-color="#EF7744"/>
<stop offset="0.5" stop-color="#E50914"/>
<stop offset="1" stop-color="#6C1E41"/>
</linearGradient>
<linearGradient id="paint12_linear_2102_944" x1="135" y1="78" x2="116.28" y2="78.825" gradientUnits="userSpaceOnUse">
<stop stop-color="#EF7744"/>
<stop offset="0.5" stop-color="#E50914"/>
<stop offset="1" stop-color="#6C1E41"/>
</linearGradient>
<linearGradient id="paint13_linear_2102_944" x1="39" y1="116.055" x2="163.5" y2="116.055" gradientUnits="userSpaceOnUse">
<stop stop-color="#DB5B24"/>
<stop offset="0.47" stop-color="#E50914"/>
<stop offset="1" stop-color="#792A95"/>
</linearGradient>
<linearGradient id="paint14_linear_2102_944" x1="152.25" y1="39.0001" x2="116.01" y2="48.8701" gradientUnits="userSpaceOnUse">
<stop offset="0.03" stop-color="#CC40DF"/>
<stop offset="1" stop-color="#890BA7"/>
</linearGradient>
<linearGradient id="paint15_linear_2102_944" x1="112.5" y1="32.2501" x2="26.2498" y2="64.5001" gradientUnits="userSpaceOnUse">
<stop stop-color="#D75BF3"/>
<stop offset="0.5" stop-color="#9F0FC0"/>
<stop offset="1" stop-color="#740084"/>
</linearGradient>
<radialGradient id="paint16_radial_2102_944" cx="0" cy="0" r="1" gradientUnits="userSpaceOnUse" gradientTransform="translate(192.01 -9.75344) rotate(135) scale(149.554 149.552)">
<stop stop-color="#EF7744"/>
<stop offset="0.33" stop-color="#E50914"/>
<stop offset="0.67" stop-color="#A70D53"/>
<stop offset="1" stop-color="#792A95"/>
</radialGradient>
<radialGradient id="paint17_radial_2102_944" cx="0" cy="0" r="1" gradientUnits="userSpaceOnUse" gradientTransform="translate(111.754 27.7499) rotate(135) scale(49.851)">
<stop stop-color="#99161D"/>
<stop offset="0.5" stop-color="#922556"/>
<stop offset="1" stop-color="#59216E"/>
</radialGradient>
<radialGradient id="paint18_radial_2102_944" cx="0" cy="0" r="1" gradientUnits="userSpaceOnUse" gradientTransform="translate(132.405 18.75) rotate(135) scale(108.187)">
<stop stop-color="#EF7744"/>
<stop offset="0.33" stop-color="#E50914"/>
<stop offset="0.67" stop-color="#A70D53"/>
<stop offset="1" stop-color="#792A95"/>
</radialGradient>
<linearGradient id="paint19_linear_2102_944" x1="60" y1="39" x2="41.28" y2="39.825" gradientUnits="userSpaceOnUse">
<stop stop-color="#C94FF5"/>
<stop offset="0.5" stop-color="#922556"/>
<stop offset="1" stop-color="#210D0E"/>
</linearGradient>
<linearGradient id="paint20_linear_2102_944" x1="80.9997" y1="45" x2="62.2798" y2="45.825" gradientUnits="userSpaceOnUse">
<stop stop-color="#C94FF5"/>
<stop offset="0.5" stop-color="#922556"/>
<stop offset="1" stop-color="#210D0E"/>
</linearGradient>
<linearGradient id="paint21_linear_2102_944" x1="78" y1="34.5" x2="59.28" y2="35.325" gradientUnits="userSpaceOnUse">
<stop stop-color="#C94FF5"/>
<stop offset="0.5" stop-color="#922556"/>
<stop offset="1" stop-color="#210D0E"/>
</linearGradient>
<linearGradient id="paint22_linear_2102_944" x1="99.0002" y1="40.4998" x2="80.2802" y2="41.3248" gradientUnits="userSpaceOnUse">
<stop stop-color="#C94FF5"/>
<stop offset="0.5" stop-color="#922556"/>
<stop offset="1" stop-color="#210D0E"/>
</linearGradient>
<linearGradient id="paint23_linear_2102_944" x1="95.9998" y1="30" x2="77.2798" y2="30.825" gradientUnits="userSpaceOnUse">
<stop stop-color="#C94FF5"/>
<stop offset="0.5" stop-color="#922556"/>
<stop offset="1" stop-color="#210D0E"/>
</linearGradient>
<linearGradient id="paint24_linear_2102_944" x1="117" y1="36" x2="98.2802" y2="36.825" gradientUnits="userSpaceOnUse">
<stop stop-color="#C94FF5"/>
<stop offset="0.5" stop-color="#922556"/>
<stop offset="1" stop-color="#210D0E"/>
</linearGradient>
<linearGradient id="paint25_linear_2102_944" x1="114" y1="25.5" x2="95.2802" y2="26.325" gradientUnits="userSpaceOnUse">
<stop stop-color="#C94FF5"/>
<stop offset="0.5" stop-color="#922556"/>
<stop offset="1" stop-color="#210D0E"/>
</linearGradient>
<linearGradient id="paint26_linear_2102_944" x1="135" y1="31.5" x2="116.28" y2="32.325" gradientUnits="userSpaceOnUse">
<stop stop-color="#C94FF5"/>
<stop offset="0.5" stop-color="#922556"/>
<stop offset="1" stop-color="#210D0E"/>
</linearGradient>
<linearGradient id="paint27_linear_2102_944" x1="39" y1="69.555" x2="163.5" y2="69.555" gradientUnits="userSpaceOnUse">
<stop stop-color="#E50914"/>
<stop offset="0.47" stop-color="#B82869"/>
<stop offset="1" stop-color="#391945"/>
</linearGradient>
</defs>
</svg>
