<svg width="32" height="32" viewBox="0 0 32 32" fill="none" xmlns="http://www.w3.org/2000/svg">
<rect width="32" height="32" rx="4" fill="#0F1219"/>
<path d="M17.1186 28C14.791 28 12.8023 27.4933 11.1525 26.4798C9.50283 25.4663 8.22599 24.0647 7.32203 22.2749C6.44068 20.4636 6 18.3828 6 16.0323C6 13.7251 6.45198 11.6658 7.35593 9.85445C8.25989 8.04313 9.55932 6.61995 11.2542 5.5849C12.9718 4.5283 15.0282 4 17.4237 4C19.5028 4 21.2542 4.33423 22.678 5.00269C24.1243 5.64959 25.2768 6.57682 26.1356 7.78437C26.9944 8.99191 27.5932 10.4151 27.9322 12.0539L22.6102 12.2803C22.3616 11.0081 21.8305 10.0054 21.0169 9.27224C20.226 8.51752 19.0395 8.14016 17.4576 8.14016C16.0791 8.14016 14.9266 8.48517 14 9.1752C13.096 9.86523 12.4181 10.8032 11.9661 11.9892C11.5367 13.1752 11.322 14.5229 11.322 16.0323C11.322 17.5633 11.5367 18.9218 11.9661 20.1078C12.4181 21.2722 13.096 22.1887 14 22.8571C14.9266 23.5256 16.113 23.8598 17.5593 23.8598C18.6215 23.8598 19.5367 23.655 20.3051 23.2453C21.096 22.8356 21.7062 22.2749 22.1356 21.5633C22.5876 20.8518 22.8588 20.0431 22.9492 19.1375H17.4576V15.5472H28V27.4825H24.8136L24.5424 22.566L25.1525 22.8248C24.9266 23.8383 24.4294 24.7332 23.661 25.5094C22.8927 26.2857 21.9435 26.9003 20.8136 27.3531C19.7062 27.7844 18.4746 28 17.1186 28Z" fill="#6BA9FB"/>
</svg>
