<svg width="128" height="128" viewBox="0 0 128 128" fill="none" xmlns="http://www.w3.org/2000/svg">
<path d="M93.4821 0.310138C99.9395 -1.18049 106.383 2.84586 107.874 9.3033L127.307 93.482C128.798 99.9394 124.772 106.383 118.315 107.874L34.1364 127.307C27.679 128.798 21.2358 124.772 19.7448 118.315L0.310212 34.1363C-1.18063 27.6788 2.84583 21.2356 9.30338 19.7447L93.4821 0.310138ZM70.319 26.1178C52.9387 26.1178 38.0409 34.6658 38.0407 48.7252C38.0407 55.9235 41.4267 61.0975 46.9567 64.1344C39.508 67.2837 34.317 72.3456 34.317 79.2066C34.3171 82.8058 35.5584 86.1802 38.7184 88.7672C32.3984 88.6547 23.3692 91.2414 23.3688 98.1021C23.3688 108.337 38.1537 113.512 53.5026 113.512C74.2687 113.512 90.5209 104.851 90.5211 90.567C90.5211 82.2438 83.975 78.082 72.6891 75.9449L51.2458 71.4459C49.6658 71.1085 48.4246 70.5459 48.4245 68.859C48.4245 67.7343 49.1011 66.6093 50.3424 65.7096C53.5025 66.7218 57.0013 67.2838 60.8385 67.2838C78.1061 67.2838 93.2292 58.7358 93.2292 44.1138C93.2291 40.852 91.9883 37.5898 89.7311 34.7779L94.8092 35.6783H99.7751L102.484 27.3551L80.3629 28.0299C77.3159 26.7927 73.9303 26.1178 70.319 26.1178ZM64.7887 97.4273C68.626 98.3271 70.5446 99.0028 70.5446 101.365C70.5441 105.526 63.5471 107.888 54.4059 107.888C43.6842 107.888 36.7995 103.951 36.7995 98.1021C36.7996 94.9531 38.4928 92.9282 41.3141 91.691L64.7887 97.4273ZM69.1901 31.067C71.5602 31.067 72.2379 34.5535 72.2379 38.2652C72.2379 50.6374 66.9332 62.5598 61.9674 62.5601C59.5975 62.5601 58.9196 59.0735 58.9196 55.3619C58.9196 42.9896 64.2243 31.0672 69.1901 31.067Z" fill="white"/>
</svg>
