<svg width="121" height="120" viewBox="0 0 121 120" fill="none" xmlns="http://www.w3.org/2000/svg">
<path d="M69.0784 108.558C73.2494 109.536 75.335 110.27 75.3352 112.837C75.3352 117.361 67.7293 119.929 57.7923 119.929C57.1523 119.929 56.5247 119.913 55.9104 119.888C53.9517 119.754 52.0111 119.524 50.094 119.202C42.9472 117.728 38.6538 114.107 38.6536 109.292C38.6536 105.869 40.4938 103.667 43.5608 102.322L69.0784 108.558ZM46.5169 1.55096C78.8045 -5.90297 111.022 14.2291 118.476 46.5168C124.023 70.5432 114.293 94.5293 95.6477 108.303C96.5609 106.08 97.0501 103.674 97.0501 101.1C97.0499 92.0524 89.9344 87.5283 77.6663 85.2053L54.3567 80.3146C52.6393 79.9479 51.2894 79.3369 51.2893 77.5031C51.2893 76.2805 52.0258 75.0574 53.3753 74.0793C56.8103 75.1797 60.6134 75.7912 64.7845 75.7912C83.5547 75.7912 99.9943 66.4991 99.9944 50.6047C99.9944 47.059 98.6453 43.5129 96.1917 40.4562L101.712 41.4348H104.979L107.923 32.3869L86.0091 33.1203C82.6967 31.7754 79.0159 31.0422 75.0901 31.0422C56.1971 31.0422 40.0033 40.3343 40.0032 55.6174C40.0032 63.4422 43.6834 69.0662 49.6946 72.3674C41.5977 75.7908 35.9544 81.2931 35.9544 88.7512C35.9544 92.6636 37.3044 96.3316 40.7395 99.1437C34.2448 99.0282 25.119 101.535 24.1409 108.111C13.1409 99.9147 4.87861 87.924 1.55106 73.5109C-5.90316 41.2231 14.2291 9.00519 46.5169 1.55096ZM73.8636 36.4221C76.4396 36.4225 77.1751 40.2127 77.1751 44.2473C77.175 57.6958 71.4098 70.6557 66.012 70.6564C63.4357 70.6564 62.6995 66.8659 62.6995 62.8312C62.6995 49.3821 68.4656 36.4221 73.8636 36.4221Z" fill="white"/>
</svg>
