<svg width="102" height="112" viewBox="0 0 102 112" fill="none" xmlns="http://www.w3.org/2000/svg">
<path d="M89.2252 23.0631C89.2252 18.8829 87.6397 14.7027 84.7568 11.0991L91.2433 12.2523H97.5856L101.045 1.58558L72.7928 2.45045C68.9009 0.864861 64.5766 0 59.964 0C37.7658 0 18.7387 10.955 18.7387 28.973C18.7387 38.1982 23.0631 44.8288 30.1261 48.7207C20.6126 52.7568 13.982 59.2432 13.982 68.036C13.982 72.6487 15.5676 76.973 19.6036 80.2883C11.5315 80.1442 0 83.4595 0 92.2523C0 105.369 18.8829 112 38.4865 112C65.009 112 85.7658 100.901 85.7658 82.5946C85.7658 71.9279 77.4054 66.5946 62.991 63.8559L35.6036 58.0901C33.5856 57.6577 32 56.9369 32 54.7748C32 53.3333 32.8649 51.8919 34.4505 50.7387C38.4865 52.036 42.955 52.7568 47.8559 52.7568C69.9099 52.7568 89.2252 41.8018 89.2252 23.0631ZM52.9009 91.3874C57.8018 92.5405 60.2523 93.4054 60.2523 96.4324C60.2523 101.766 51.3153 104.793 39.6396 104.793C25.9459 104.793 17.1532 99.7478 17.1532 92.2523C17.1532 88.2162 19.3153 85.6216 22.9189 84.036L52.9009 91.3874ZM62.4144 15.5676C62.4144 31.4234 55.6396 46.7027 49.2973 46.7027C46.2703 46.7027 45.4054 42.2342 45.4054 37.4775C45.4054 21.6216 52.1802 6.34235 58.5225 6.34235C61.5496 6.34235 62.4144 10.8108 62.4144 15.5676Z" fill="url(#paint0_linear_667_604)"/>
<defs>
<linearGradient id="paint0_linear_667_604" x1="65.8823" y1="-59.4275" x2="65.8823" y2="247.88" gradientUnits="userSpaceOnUse">
<stop offset="0.6875" stop-color="white"/>
<stop offset="1" stop-color="#8C8484"/>
</linearGradient>
</defs>
</svg>
